# xmcd CD database file
#
# Track frame offsets:
#	150
#	1247
#	14052
#	41145
#	64422
#	79932
#	97237
#	114279
#	133087
#	159385
#	177420
#	201592
#	219687
#	250485
#	268187
#	287070
#
# Disc length: 3842 seconds
#
# Revision: 0
# Processed by: cddbd v1.5.2PL0 Copyright (c) Steve Scherf et al.
# Submitted via: CDex 1.51
#
DISCID=fc0f0010
DTITLE=Dirty Dozen - Boomerang
DYEAR=1900
DGENRE=Jazz
TTITLE0=Bomerang Gone
TTITLE1=The One Rose
TTITLE2=Breeze
TTITLE3=Indian Love Call
TTITLE4=September Song
TTITLE5=Lina Blues
TTITLE6=Snowy Mornin' Blues
TTITLE7=That's my home
TTITLE8=Mean to Me
TTITLE9=Chloe
TTITLE10=The Torch
TTITLE11=I wanna Be Like You
TTITLE12=Misty
TTITLE13=With Imagination I get There
TTITLE14=Pennies from Heaven
TTITLE15=Boomerang Back
EXTD=
EXTT0=
EXTT1=
EXTT2=
EXTT3=
EXTT4=
EXTT5=
EXTT6=
EXTT7=
EXTT8=
EXTT9=
EXTT10=
EXTT11=
EXTT12=
EXTT13=
EXTT14=
EXTT15=
PLAYORDER=
